<svg xmlns="http://www.w3.org/2000/svg" viewBox="0 0 139.94 175"><g data-name="图层 2"><g data-name="图层 1"><path d="M4.88 0h91.51l43.55 44v126.12a4.88 4.88 0 0 1-4.88 4.88H4.88A4.89 4.89 0 0 1 0 170.12V4.88A4.89 4.89 0 0 1 4.88 0Z" fill="#36b389"/><path d="M96.39 0v39.16a4.87 4.87 0 0 0 4.88 4.84h38.67Z" fill="#dcefe2"/><path d="M93.75 57.32a7.52 7.52 0 1 1 7.52 7.52 7.51 7.51 0 0 1-7.52-7.52ZM24.81 96.8h86.51L87.75 65.59a5.18 5.18 0 0 0-8.28 0l-9.19 12.18-13.15-25.18a5.2 5.2 0 0 0-9.22 0ZM39 139.67l.73-3a4 4 0 0 0 1.28.23c1.34 0 1.74-.89 1.74-2.65v-16.1h4.09v16c0 3.34-1.29 6-5.2 6a7.41 7.41 0 0 1-2.64-.4Zm3.35-26.29a2.23 2.23 0 0 1 2.44-2.22 2.25 2.25 0 0 1 2.45 2.22 2.29 2.29 0 0 1-2.45 2.23 2.27 2.27 0 0 1-2.47-2.23Zm8.85 4.73h3.35l.28 1.61h.1a7.42 7.42 0 0 1 4.59-2c3.85 0 6.12 3.15 6.12 7.94 0 5.33-3.2 8.44-6.62 8.44a5.73 5.73 0 0 1-3.86-1.7l.1 2.56v4.73h-4.09Zm10.25 7.6c0-3-1-4.62-3.09-4.62a4.38 4.38 0 0 0-3.08 1.61v6.85a4.37 4.37 0 0 0 2.84 1.16c1.87 0 3.33-1.6 3.33-5Zm6.7.23c0-5.06 3.54-8.21 7.27-8.21 4.28 0 6.51 3.15 6.51 7.45a7.82 7.82 0 0 1-.19 1.87h-9.6a4.1 4.1 0 0 0 4.32 3.9 6.29 6.29 0 0 0 3.5-1.09l1.38 2.51a9.78 9.78 0 0 1-5.46 1.73c-4.33 0-7.73-3-7.73-8.16Zm10.28-1.59c0-2.12-1-3.45-2.94-3.45-1.65 0-3.09 1.16-3.4 3.45Zm5.51 12.11a3.78 3.78 0 0 1 2.24-3.22v-.14a3 3 0 0 1-1.42-2.62 3.92 3.92 0 0 1 1.73-2.93v-.1a5.16 5.16 0 0 1-2.06-4.07c0-3.68 3-5.65 6.29-5.65a7.69 7.69 0 0 1 2.34.38h5.61v3H96a4 4 0 0 1 .72 2.38c0 3.5-2.67 5.29-6 5.29a6.55 6.55 0 0 1-2-.37 1.57 1.57 0 0 0-.68 1.34c0 .83.61 1.28 2.45 1.28h2.61c3.76 0 5.79 1.16 5.79 3.9 0 3.15-3.26 5.54-8.46 5.54-3.67 0-6.52-1.24-6.52-4Zm11.06-.83c0-1.11-.92-1.39-2.58-1.39h-1.9a8.65 8.65 0 0 1-2.17-.22 2.32 2.32 0 0 0-1 1.8c0 1.3 1.45 2.06 3.72 2.06s3.94-1 3.94-2.25Zm-1.9-12.25c0-1.84-1-2.86-2.43-2.86s-2.44 1-2.44 2.86 1.09 2.85 2.44 2.85 2.43-1.02 2.43-2.85Z" fill="#fff"/></g></g></svg>