<svg xmlns="http://www.w3.org/2000/svg" viewBox="0 0 139.94 175"><g data-name="图层 2"><g data-name="图层 1"><path d="M4.88 0h91.51l43.55 44v126.12a4.88 4.88 0 0 1-4.88 4.88H4.88A4.89 4.89 0 0 1 0 170.12V4.88A4.89 4.89 0 0 1 4.88 0Z" fill="#5087e5"/><path d="M96.39 0v39.16a4.87 4.87 0 0 0 4.88 4.84h38.67Z" fill="#e5f0ff"/><path d="M105.3 140.74a6.84 6.84 0 0 0 11.89-4.61V63.48h-13.67v55L76.34 88.74a6.84 6.84 0 0 0-10.1 0l-27.18 29.77v-55H25.39v72.65a6.83 6.83 0 0 0 11.88 4.61l34-37.25Z" fill="#fff"/></g></g></svg>