<svg xmlns="http://www.w3.org/2000/svg" viewBox="0 0 139.94 175"><g data-name="图层 2"><g data-name="图层 1"><path d="M4.88 0h91.51l43.55 44v126.12a4.88 4.88 0 0 1-4.88 4.88H4.88A4.89 4.89 0 0 1 0 170.12V4.88A4.89 4.89 0 0 1 4.88 0Z" fill="#eb5451"/><path d="M96.39 0v39.16a4.87 4.87 0 0 0 4.88 4.84h38.67Z" fill="#f19ba9"/><path d="M105.06 146.09c-8.67 0-16.45-14.88-20.54-24.55a142.06 142.06 0 0 0-21.84-7.29c-6.45 4.25-17.43 10.62-25.85 10.62-5.23 0-9-2.63-10.38-7.21-1.06-3.77-.16-6.37 1-7.78 2.23-3 6.81-4.58 13.66-4.58a91.18 91.18 0 0 1 20.46 2.87A131 131 0 0 0 76.34 96c-2-9.65-4.26-25.29 1.38-32.5 2.79-3.44 7-4.58 12.19-3 5.64 1.63 7.78 5.07 8.43 7.78 2.39 9.41-8.43 22.09-15.72 29.55A141.57 141.57 0 0 0 89 117.25c10.46 4.67 22.9 11.63 24.31 19.22a7.55 7.55 0 0 1-2.38 7.21 9.27 9.27 0 0 1-5.86 2.41Zm-7.79-16.4c1.9 4.24 3.72 6.25 4.68 6.25a1 1 0 0 0 .65-.33.87.87 0 0 0 .3-.89c-.2-1.11-1.81-2.94-5.63-5.03ZM42.2 112.5c-3.05 0-3.89.74-4.14 1.08-.07.11-.29.44-.07 1.3s.69 1.53 2.27 1.53c2 0 4.85-1.12 8.18-3.12a29.41 29.41 0 0 0-6.24-.79Zm29.87-3.79c1.82.51 3.71 1.16 5.47 1.84a49.52 49.52 0 0 1-1.54-5.08l-3.93 3.24ZM85 72.07a1.91 1.91 0 0 0-1.51.69C82.24 74.28 82.1 78.1 83 83c3.54-3.8 5.46-7.28 5-9.15-.06-.27-.27-1.1-1.92-1.58a3.74 3.74 0 0 0-1.08-.2Z" fill="#fff"/></g></g></svg>