<?xml version="1.0" encoding="UTF-8"?>
<svg id="_图层_2" data-name="图层 2" xmlns="http://www.w3.org/2000/svg" xmlns:xlink="http://www.w3.org/1999/xlink" viewBox="0 0 64 64">
  <defs>
    <style>
      .cls-1 {
        fill: url(#_未命名的渐变_19);
      }

      .cls-2 {
        fill: url(#_未命名的渐变_29);
      }

      .cls-3 {
        fill: url(#_未命名的渐变_27);
      }

      .cls-4 {
        fill: url(#_未命名的渐变_20);
      }

      .cls-5 {
        fill: url(#_未命名的渐变_25);
      }

      .cls-6 {
        fill: url(#_未命名的渐变_24);
      }

      .cls-7 {
        fill: url(#_未命名的渐变_22);
      }

      .cls-8 {
        fill: url(#_未命名的渐变_28);
      }

      .cls-9 {
        fill: url(#_未命名的渐变_26);
      }

      .cls-10 {
        fill: url(#_未命名的渐变_23);
      }

      .cls-11 {
        fill: url(#_未命名的渐变_21);
      }

      .cls-12 {
        fill: url(#_未命名的渐变_30);
      }

      .cls-13 {
        fill: #1ebbee;
        opacity: 0;
      }
    </style>
    <linearGradient id="_未命名的渐变_19" data-name="未命名的渐变 19" x1="325.42" y1="-112.44" x2="261.08" y2="-174.52" gradientTransform="translate(-189.08 -73.08) scale(.75 -.75)" gradientUnits="userSpaceOnUse">
      <stop offset=".05" stop-color="#fff44f"/>
      <stop offset=".11" stop-color="#ffe847"/>
      <stop offset=".23" stop-color="#ffc830"/>
      <stop offset=".37" stop-color="#ff980e"/>
      <stop offset=".4" stop-color="#ff8b16"/>
      <stop offset=".46" stop-color="#ff672a"/>
      <stop offset=".53" stop-color="#ff3647"/>
      <stop offset=".7" stop-color="#e31587"/>
    </linearGradient>
    <radialGradient id="_未命名的渐变_20" data-name="未命名的渐变 20" cx="-7652.55" cy="8415.07" fx="-7652.55" fy="8415.07" r="80.8" gradientTransform="translate(5794.64 6322.56) scale(.75 -.75)" gradientUnits="userSpaceOnUse">
      <stop offset=".13" stop-color="#ffbd4f"/>
      <stop offset=".19" stop-color="#ffac31"/>
      <stop offset=".25" stop-color="#ff9d17"/>
      <stop offset=".28" stop-color="#ff980e"/>
      <stop offset=".4" stop-color="#ff563b"/>
      <stop offset=".47" stop-color="#ff3750"/>
      <stop offset=".71" stop-color="#f5156c"/>
      <stop offset=".78" stop-color="#eb0878"/>
      <stop offset=".86" stop-color="#e50080"/>
    </radialGradient>
    <radialGradient id="_未命名的渐变_21" data-name="未命名的渐变 21" cx="-7682.07" cy="8382.03" fx="-7682.07" fy="8382.03" r="80.8" gradientTransform="translate(5794.64 6322.56) scale(.75 -.75)" gradientUnits="userSpaceOnUse">
      <stop offset=".3" stop-color="#960e18"/>
      <stop offset=".35" stop-color="#b11927" stop-opacity=".74"/>
      <stop offset=".43" stop-color="#db293d" stop-opacity=".34"/>
      <stop offset=".5" stop-color="#f5334b" stop-opacity=".09"/>
      <stop offset=".53" stop-color="#ff3750" stop-opacity="0"/>
    </radialGradient>
    <radialGradient id="_未命名的渐变_22" data-name="未命名的渐变 22" cx="-7672.33" cy="8433.4" fx="-7672.33" fy="8433.4" r="58.53" gradientTransform="translate(5794.64 6322.56) scale(.75 -.75)" gradientUnits="userSpaceOnUse">
      <stop offset=".13" stop-color="#fff44f"/>
      <stop offset=".25" stop-color="#ffdc3e"/>
      <stop offset=".51" stop-color="#ff9d12"/>
      <stop offset=".53" stop-color="#ff980e"/>
    </radialGradient>
    <radialGradient id="_未命名的渐变_23" data-name="未命名的渐变 23" cx="-7691.01" cy="8360.93" fx="-7691.01" fy="8360.93" r="38.47" gradientTransform="translate(5794.64 6322.56) scale(.75 -.75)" gradientUnits="userSpaceOnUse">
      <stop offset=".35" stop-color="#3a8ee6"/>
      <stop offset=".47" stop-color="#5c79f0"/>
      <stop offset=".67" stop-color="#9059ff"/>
      <stop offset="1" stop-color="#c139e6"/>
    </radialGradient>
    <radialGradient id="_未命名的渐变_24" data-name="未命名的渐变 24" cx="-7867.83" cy="8299.5" fx="-7867.83" fy="8299.5" r="20.4" gradientTransform="translate(7484.52 5727.74) rotate(-13.59) scale(.75 -.88)" gradientUnits="userSpaceOnUse">
      <stop offset=".21" stop-color="#9059ff" stop-opacity="0"/>
      <stop offset=".28" stop-color="#8c4ff3" stop-opacity=".06"/>
      <stop offset=".75" stop-color="#7716a8" stop-opacity=".45"/>
      <stop offset=".97" stop-color="#6e008b" stop-opacity=".6"/>
    </radialGradient>
    <radialGradient id="_未命名的渐变_25" data-name="未命名的渐变 25" cx="-7683.09" cy="8418.37" fx="-7683.09" fy="8418.37" r="27.68" gradientTransform="translate(5794.64 6322.56) scale(.75 -.75)" gradientUnits="userSpaceOnUse">
      <stop offset="0" stop-color="#ffe226"/>
      <stop offset=".12" stop-color="#ffdb27"/>
      <stop offset=".29" stop-color="#ffc82a"/>
      <stop offset=".5" stop-color="#ffa930"/>
      <stop offset=".73" stop-color="#ff7e37"/>
      <stop offset=".79" stop-color="#ff7139"/>
    </radialGradient>
    <radialGradient id="_未命名的渐变_26" data-name="未命名的渐变 26" cx="-7661.34" cy="8435.93" fx="-7661.34" fy="8435.93" r="118.08" gradientTransform="translate(5794.64 6322.56) scale(.75 -.75)" gradientUnits="userSpaceOnUse">
      <stop offset=".11" stop-color="#fff44f"/>
      <stop offset=".46" stop-color="#ff980e"/>
      <stop offset=".62" stop-color="#ff5634"/>
      <stop offset=".72" stop-color="#ff3647"/>
      <stop offset=".9" stop-color="#e31587"/>
    </radialGradient>
    <radialGradient id="_未命名的渐变_27" data-name="未命名的渐变 27" cx="-7923.2" cy="10544.56" fx="-7923.2" fy="10544.56" r="86.5" gradientTransform="translate(-4503.32 6458.97) rotate(83.98) scale(.75 -.49)" gradientUnits="userSpaceOnUse">
      <stop offset="0" stop-color="#fff44f"/>
      <stop offset=".06" stop-color="#ffe847"/>
      <stop offset=".17" stop-color="#ffc830"/>
      <stop offset=".3" stop-color="#ff980e"/>
      <stop offset=".36" stop-color="#ff8b16"/>
      <stop offset=".46" stop-color="#ff672a"/>
      <stop offset=".57" stop-color="#ff3647"/>
      <stop offset=".74" stop-color="#e31587"/>
    </radialGradient>
    <radialGradient id="_未命名的渐变_28" data-name="未命名的渐变 28" cx="-7683.75" cy="8408.12" fx="-7683.75" fy="8408.12" r="73.72" gradientTransform="translate(5794.64 6322.56) scale(.75 -.75)" gradientUnits="userSpaceOnUse">
      <stop offset=".14" stop-color="#fff44f"/>
      <stop offset=".48" stop-color="#ff980e"/>
      <stop offset=".59" stop-color="#ff5634"/>
      <stop offset=".66" stop-color="#ff3647"/>
      <stop offset=".9" stop-color="#e31587"/>
    </radialGradient>
    <radialGradient id="_未命名的渐变_29" data-name="未命名的渐变 29" cx="-7664.29" cy="8403.81" fx="-7664.29" fy="8403.81" r="80.69" gradientTransform="translate(5794.64 6322.56) scale(.75 -.75)" gradientUnits="userSpaceOnUse">
      <stop offset=".09" stop-color="#fff44f"/>
      <stop offset=".23" stop-color="#ffe141"/>
      <stop offset=".51" stop-color="#ffaf1e"/>
      <stop offset=".63" stop-color="#ff980e"/>
    </radialGradient>
    <linearGradient id="_未命名的渐变_30" data-name="未命名的渐变 30" x1="324.65" y1="-112.11" x2="269.9" y2="-166.86" gradientTransform="translate(-189.08 -73.08) scale(.75 -.75)" gradientUnits="userSpaceOnUse">
      <stop offset=".17" stop-color="#fff44f" stop-opacity=".8"/>
      <stop offset=".27" stop-color="#fff44f" stop-opacity=".63"/>
      <stop offset=".49" stop-color="#fff44f" stop-opacity=".22"/>
      <stop offset=".6" stop-color="#fff44f" stop-opacity="0"/>
    </linearGradient>
  </defs>
  <g id="svg137">
    <g>
      <rect class="cls-13" width="64" height="64"/>
      <g id="g5076">
        <path id="path980" class="cls-1" d="m58.94,22.13c-1.26-3.04-3.83-6.32-5.83-7.36,1.43,2.77,2.43,5.75,2.94,8.83v.05c-3.28-8.2-8.86-11.5-13.41-18.7-.23-.36-.46-.73-.69-1.11-.13-.22-.23-.42-.32-.6-.19-.37-.33-.75-.43-1.15,0-.04-.03-.07-.07-.08-.02,0-.04,0-.05,0,0,0,0,0-.01,0s-.01,0-.02.01v-.02c-7.29,4.28-9.77,12.19-10,16.15-2.92.2-5.71,1.28-8,3.08-.24-.2-.49-.39-.75-.57-.66-2.32-.69-4.77-.08-7.11-2.68,1.3-5.07,3.14-7,5.41h-.01c-1.15-1.46-1.07-6.28-1.01-7.28-.34.14-.67.31-.97.52-1.02.73-1.97,1.54-2.84,2.43-1,1.01-1.9,2.1-2.72,3.26h0s0,0,0,0c-1.87,2.65-3.2,5.65-3.9,8.81l-.04.19c-.05.26-.25,1.54-.29,1.82,0,.02,0,.04,0,.06-.25,1.32-.41,2.66-.47,4.01v.15c.01,16.06,13.05,29.07,29.11,29.06,14.14-.01,26.23-10.2,28.63-24.14.05-.38.09-.75.13-1.13.6-4.95-.05-9.97-1.89-14.61Zm-33.52,22.76c.14.07.26.14.4.2h.02c-.14-.05-.28-.13-.42-.2Zm30.64-21.24v-.03.03s0,0,0,0Z"/>
        <path id="path982" class="cls-4" d="m58.94,22.13c-1.26-3.04-3.83-6.32-5.83-7.36,1.43,2.77,2.43,5.75,2.94,8.83v.06c2.25,6.41,1.92,13.45-.9,19.63-3.33,7.15-11.4,14.48-24.03,14.12-13.64-.39-25.66-10.51-27.91-23.77-.41-2.09,0-3.15.21-4.85-.28,1.32-.44,2.66-.47,4.01v.15c.01,16.06,13.05,29.07,29.11,29.06,14.14-.01,26.23-10.2,28.63-24.14.05-.38.09-.75.13-1.13.6-4.95-.05-9.97-1.89-14.61Z"/>
        <path id="path984" class="cls-11" d="m58.94,22.13c-1.26-3.04-3.83-6.32-5.83-7.36,1.43,2.77,2.43,5.75,2.94,8.83v.06c2.25,6.41,1.92,13.45-.9,19.63-3.33,7.15-11.4,14.48-24.03,14.12-13.64-.39-25.66-10.51-27.91-23.77-.41-2.09,0-3.15.21-4.85-.28,1.32-.44,2.66-.47,4.01v.15c.01,16.06,13.05,29.07,29.11,29.06,14.14-.01,26.23-10.2,28.63-24.14.05-.38.09-.75.13-1.13.6-4.95-.05-9.97-1.89-14.61Z"/>
        <path id="path986" class="cls-7" d="m44.81,25.55c.06.04.12.09.18.13-.73-1.3-1.64-2.48-2.7-3.52-9.04-9.04-2.37-19.6-1.24-20.14v-.02c-7.29,4.28-9.77,12.19-10,16.15.34-.02.68-.05,1.02-.05,5.28,0,10.14,2.85,12.74,7.44Z"/>
        <path id="path988" class="cls-10" d="m32.09,27.35c-.05.72-2.6,3.22-3.5,3.22-8.27,0-9.61,5-9.61,5,.37,4.21,3.3,7.68,6.85,9.52.16.08.33.16.49.23.28.13.57.24.85.35,1.22.43,2.49.68,3.78.73,14.49.68,17.3-17.33,6.84-22.56,2.47-.32,4.97.29,7.01,1.7-2.6-4.59-7.47-7.43-12.74-7.44-.35,0-.68.03-1.02.05-2.92.2-5.71,1.28-8,3.08.44.38.94.88,2,1.92,1.97,1.94,7.03,3.96,7.05,4.19Z"/>
        <path id="path990" class="cls-6" d="m32.09,27.35c-.05.72-2.6,3.22-3.5,3.22-8.27,0-9.61,5-9.61,5,.37,4.21,3.3,7.68,6.85,9.52.16.08.33.16.49.23.28.13.57.24.85.35,1.22.43,2.49.68,3.78.73,14.49.68,17.3-17.33,6.84-22.56,2.47-.32,4.97.29,7.01,1.7-2.6-4.59-7.47-7.43-12.74-7.44-.35,0-.68.03-1.02.05-2.92.2-5.71,1.28-8,3.08.44.38.94.88,2,1.92,1.97,1.94,7.03,3.96,7.05,4.19Z"/>
        <path id="path992" class="cls-5" d="m21.69,20.28c.24.15.43.28.6.4-.66-2.32-.69-4.77-.08-7.11-2.68,1.3-5.07,3.14-7,5.41.14,0,4.36-.08,6.48,1.3Z"/>
        <path id="path994" class="cls-9" d="m3.22,33.63c2.24,13.26,14.26,23.39,27.91,23.77,12.63.36,20.7-6.97,24.03-14.12,2.82-6.18,3.15-13.21.9-19.63v-.03s0-.03,0-.03v.05c1.04,6.74-2.39,13.26-7.74,17.67l-.02.04c-10.44,8.5-20.42,5.13-22.44,3.75-.14-.07-.28-.14-.42-.21-6.08-2.91-8.6-8.45-8.06-13.21-2.95.04-5.65-1.65-6.89-4.33,3.25-1.99,7.29-2.15,10.69-.43,3.44,1.56,7.36,1.72,10.92.43-.01-.24-5.07-2.25-7.05-4.19-1.05-1.04-1.55-1.54-2-1.92-.24-.2-.49-.39-.75-.57-.17-.12-.37-.25-.6-.4-2.12-1.38-6.34-1.3-6.48-1.3h-.01c-1.15-1.46-1.07-6.28-1.01-7.28-.34.14-.67.31-.97.52-1.02.73-1.97,1.54-2.84,2.43-1,1.01-1.91,2.1-2.73,3.25h0s0,0,0,0c-1.87,2.65-3.2,5.65-3.9,8.81-.01.06-1.05,4.58-.54,6.92Z"/>
        <path id="path996" class="cls-3" d="m42.29,22.16c1.06,1.04,1.97,2.23,2.7,3.53.16.12.31.24.44.36,6.59,6.08,3.14,14.67,2.88,15.28,5.36-4.41,8.78-10.94,7.75-17.67-3.29-8.2-8.86-11.51-13.42-18.7-.23-.36-.46-.73-.69-1.11-.13-.22-.23-.42-.32-.6-.19-.37-.33-.75-.43-1.15,0-.04-.03-.07-.07-.08-.02,0-.04,0-.05,0,0,0,0,0-.01,0s-.01,0-.02.01c-1.12.53-7.79,11.09,1.25,20.13Z"/>
        <path id="path998" class="cls-8" d="m45.42,26.04c-.13-.12-.28-.24-.44-.36-.06-.04-.12-.09-.18-.13-2.05-1.42-4.54-2.02-7.01-1.7,10.46,5.23,7.65,23.24-6.84,22.56-1.29-.05-2.57-.3-3.78-.73-.28-.11-.57-.22-.85-.35-.16-.08-.33-.15-.49-.23h.02c2.02,1.39,12,4.76,22.44-3.74l.02-.04c.26-.61,3.71-9.2-2.88-15.28Z"/>
        <path id="path1000" class="cls-2" d="m18.98,35.57s1.34-5,9.61-5c.89,0,3.45-2.49,3.5-3.22-3.56,1.29-7.47,1.13-10.92-.43-3.4-1.72-7.44-1.56-10.69.43,1.24,2.68,3.94,4.38,6.89,4.33-.54,4.75,1.97,10.3,8.06,13.21.14.07.26.14.4.2-3.55-1.83-6.48-5.3-6.85-9.52Z"/>
        <path id="path1002" class="cls-12" d="m58.94,22.13c-1.26-3.04-3.83-6.32-5.83-7.36,1.43,2.77,2.43,5.75,2.94,8.83v.05c-3.28-8.2-8.86-11.5-13.41-18.7-.23-.36-.46-.73-.69-1.11-.13-.22-.23-.42-.32-.6-.19-.37-.33-.75-.43-1.15,0-.04-.03-.07-.07-.08-.02,0-.04,0-.05,0,0,0,0,0-.01,0s-.01,0-.02.01v-.02c-7.29,4.28-9.77,12.19-10,16.15.34-.02.68-.05,1.02-.05,5.28,0,10.14,2.85,12.74,7.44-2.05-1.42-4.54-2.02-7.01-1.7,10.46,5.23,7.65,23.24-6.84,22.56-1.29-.05-2.57-.3-3.78-.73-.28-.11-.57-.22-.85-.35-.16-.08-.33-.15-.49-.23h.02c-.14-.05-.28-.13-.42-.2.14.07.26.14.4.2-3.55-1.84-6.48-5.3-6.85-9.52,0,0,1.34-5,9.61-5,.89,0,3.45-2.49,3.5-3.22-.01-.24-5.07-2.25-7.05-4.19-1.05-1.04-1.55-1.54-2-1.92-.24-.2-.49-.39-.75-.57-.66-2.32-.69-4.77-.08-7.11-2.68,1.3-5.07,3.14-7,5.41h-.01c-1.15-1.46-1.07-6.28-1.01-7.28-.34.14-.67.31-.97.52-1.02.73-1.97,1.54-2.84,2.43-1,1.01-1.9,2.1-2.72,3.26h0s0,0,0,0c-1.87,2.65-3.2,5.65-3.9,8.81l-.04.19c-.05.26-.3,1.56-.34,1.83,0,.02,0-.02,0,0-.22,1.34-.37,2.7-.43,4.05v.15c.01,16.06,13.05,29.07,29.11,29.06,14.14-.01,26.23-10.2,28.63-24.14.05-.38.09-.75.13-1.13.6-4.95-.05-9.97-1.89-14.61Zm-2.88,1.49v.03s0-.03,0-.03Z"/>
      </g>
    </g>
  </g>
</svg>