<?xml version="1.0" encoding="UTF-8"?>
<svg id="_图层_2" data-name="图层 2" xmlns="http://www.w3.org/2000/svg" xmlns:xlink="http://www.w3.org/1999/xlink" viewBox="0 0 64 64">
  <defs>
    <style>
      .cls-1 {
        opacity: .53;
      }

      .cls-1, .cls-2 {
        fill: none;
      }

      .cls-1, .cls-2, .cls-3 {
        isolation: isolate;
      }

      .cls-2 {
        opacity: .41;
      }

      .cls-4 {
        fill: #f4f2f3;
      }

      .cls-5 {
        fill: #ff5150;
      }

      .cls-6 {
        fill: #f1f1f1;
      }

      .cls-7 {
        fill: url(#_未命名的渐变_12);
      }

      .cls-8 {
        fill: url(#_未命名的渐变_11);
        stroke: #cdcdcd;
        stroke-linecap: round;
        stroke-linejoin: round;
        stroke-width: .09px;
      }

      .cls-9 {
        fill: #1ebbee;
        opacity: 0;
      }

      .cls-3 {
        opacity: .24;
      }
    </style>
    <linearGradient id="_未命名的渐变_11" data-name="未命名的渐变 11" x1="1813.19" y1="-1188.51" x2="1813.19" y2="-1010.29" gradientTransform="translate(-568.75 -332.4) scale(.33 -.33)" gradientUnits="userSpaceOnUse">
      <stop offset="0" stop-color="#bdbdbd"/>
      <stop offset="1" stop-color="#fff"/>
    </linearGradient>
    <radialGradient id="_未命名的渐变_12" data-name="未命名的渐变 12" cx="1630.92" cy="-968.28" fx="1630.92" fy="-968.28" r="82.13" gradientTransform="translate(-554.18 -320.2) scale(.36 -.36)" gradientUnits="userSpaceOnUse">
      <stop offset="0" stop-color="#06c2e7"/>
      <stop offset=".25" stop-color="#0db8ec"/>
      <stop offset=".5" stop-color="#12aef1"/>
      <stop offset=".75" stop-color="#1f86f9"/>
      <stop offset="1" stop-color="#107ddd"/>
    </radialGradient>
  </defs>
  <g id="svg137">
    <g>
      <rect class="cls-9" width="64" height="64"/>
      <g id="layer1">
        <g id="g2858">
          <g id="path2226" class="cls-1">
            <ellipse cx="32" cy="34.28" rx="28.44" ry="27.39"/>
          </g>
          <path id="path826" class="cls-8" d="m61.52,31.86c0,16.31-13.22,29.52-29.52,29.52h0c-16.31,0-29.52-13.22-29.52-29.52S15.69,2.34,32,2.34h0c16.31,0,29.52,13.22,29.52,29.52h0Z"/>
          <path id="circle828" class="cls-7" d="m59.21,31.86c0,15.03-12.18,27.21-27.21,27.21h0c-15.03,0-27.21-12.18-27.21-27.21h0c0-15.03,12.18-27.21,27.21-27.21h0c15.03,0,27.21,12.18,27.21,27.21h0Z"/>
          <path id="rect830" class="cls-4" d="m32,6.07c-.22,0-.4.18-.4.4v4.58c0,.22.18.4.4.4s.4-.18.4-.4v-4.58c0-.22-.18-.4-.4-.4Zm-2.6.16s-.05,0-.08,0c-.22.02-.38.22-.35.44l.2,1.91c.02.22.22.38.44.35.22-.02.38-.22.35-.44l-.2-1.91c-.02-.19-.17-.34-.36-.35Zm5.21,0c-.18.02-.34.16-.36.35l-.2,1.91c-.02.22.13.41.35.44.22.02.41-.13.44-.35l.2-1.91c.02-.22-.13-.41-.35-.44-.03,0-.05,0-.08,0h0Zm-7.87.38s-.05,0-.08,0c-.22.05-.35.26-.31.47l.95,4.48c.05.22.26.35.47.31.22-.05.35-.26.31-.47l-.95-4.48c-.04-.19-.21-.32-.39-.31h0Zm10.54,0c-.18,0-.35.13-.39.31l-.95,4.48c-.05.21.09.42.31.47.21.05.42-.09.47-.31l.95-4.48c.05-.21-.09-.42-.31-.47-.03,0-.05,0-.08,0h0Zm-13.08.71c-.05,0-.1,0-.16.02-.21.07-.32.29-.25.5l.59,1.83c.07.21.29.32.5.25.21-.07.32-.29.25-.5l-.59-1.83c-.05-.16-.19-.26-.34-.27h0Zm15.61,0c-.15.01-.29.12-.34.27l-.6,1.83c-.07.21.05.43.25.5.21.07.43-.05.5-.25l.6-1.83c.07-.21-.05-.43-.25-.5-.05-.02-.11-.02-.16-.02h0Zm-18.13.92c-.05,0-.1.01-.15.03-.2.09-.29.32-.2.52l1.86,4.18c.09.2.32.29.52.2.2-.09.29-.32.2-.52l-1.86-4.18c-.07-.15-.22-.24-.37-.24Zm20.68.01c-.15,0-.3.08-.37.24l-1.86,4.18c-.09.2,0,.43.2.52.2.09.43,0,.52-.2l1.86-4.18c.09-.2,0-.43-.2-.52-.05-.02-.1-.03-.15-.03Zm-23.01,1.22c-.08,0-.15.01-.23.05-.19.11-.26.35-.15.54l.96,1.67c.11.19.35.26.54.15.19-.11.26-.35.15-.54l-.96-1.67c-.07-.12-.19-.19-.32-.2h0Zm25.31,0c-.13,0-.25.08-.32.2l-.96,1.67c-.11.19-.04.43.15.54.19.11.43.05.54-.15l.96-1.67c.11-.19.05-.43-.15-.54-.07-.04-.15-.06-.23-.05h0Zm-27.58,1.41c-.08,0-.15.03-.22.08-.18.13-.22.38-.09.55l2.69,3.7c.13.18.38.22.55.09.18-.13.22-.38.09-.55l-2.69-3.7c-.08-.11-.21-.17-.33-.16h0Zm29.88.02c-.13,0-.25.05-.33.16l-2.69,3.7c-.13.18-.09.42.09.55.18.13.42.09.55-.09l2.69-3.7c.13-.18.09-.42-.09-.55-.07-.05-.14-.07-.22-.08h0Zm-31.9,1.68c-.1,0-.2.03-.29.1-.16.15-.18.4-.03.56l1.29,1.43c.15.16.4.18.56.03.16-.15.18-.4.03-.56l-1.29-1.43c-.07-.08-.17-.13-.27-.13h0Zm33.91,0c-.1,0-.2.05-.27.13l-1.29,1.43c-.15.16-.13.41.03.56.16.15.41.13.56-.03l1.29-1.43c.15-.16.13-.41-.03-.56-.08-.07-.18-.11-.29-.1h0Zm-35.85,1.86c-.1,0-.2.05-.27.13-.15.16-.13.41.03.56l3.4,3.06c.16.15.41.13.56-.03.15-.16.13-.41-.03-.56l-3.4-3.06c-.08-.07-.18-.11-.29-.1h0Zm37.8.01c-.1,0-.2.03-.29.1l-3.4,3.06c-.16.15-.18.4-.03.56.15.16.4.18.56.03l3.4-3.06c.16-.15.18-.4.03-.56-.07-.08-.17-.13-.27-.13Zm-39.42,2.06c-.13,0-.25.05-.33.16-.13.18-.09.42.09.55l1.56,1.13c.18.13.42.09.55-.09.13-.18.09-.43-.09-.55l-1.56-1.13c-.07-.05-.14-.07-.22-.08h0Zm41.03.01c-.08,0-.15.03-.22.08l-1.56,1.13c-.18.13-.22.38-.09.55.13.18.38.22.55.09l1.56-1.13c.18-.13.22-.38.09-.55-.08-.11-.21-.17-.33-.16h0Zm-42.54,2.2c-.13,0-.25.08-.32.2-.11.19-.05.43.15.54l3.96,2.29c.19.11.43.05.54-.15s.05-.43-.15-.54l-3.96-2.29c-.07-.04-.15-.06-.23-.05h0Zm44.04,0c-.08,0-.15.01-.23.05l-3.96,2.29c-.19.11-.26.35-.15.54s.35.26.54.15l3.96-2.29c.19-.11.26-.35.15-.54-.07-.12-.19-.19-.32-.2h0Zm-45.18,2.36c-.15,0-.3.08-.37.24-.09.2,0,.43.2.52l1.76.78c.2.09.43,0,.52-.2s0-.43-.2-.52l-1.76-.78c-.05-.02-.1-.03-.15-.03Zm46.33.02c-.05,0-.1.01-.15.03l-1.76.78c-.2.09-.29.32-.2.52.09.2.32.29.52.2l1.76-.78c.2-.09.29-.32.2-.52-.07-.15-.22-.24-.37-.24h0Zm-47.35,2.45c-.15.01-.29.12-.34.27-.07.21.05.43.25.5l4.35,1.42c.21.07.43-.05.5-.25.07-.21-.05-.43-.25-.5l-4.35-1.42c-.05-.02-.11-.02-.16-.02h0Zm48.36.02c-.05,0-.1,0-.16.02l-4.35,1.41c-.21.07-.32.29-.25.5.07.21.29.32.5.25l4.35-1.41c.21-.07.32-.29.25-.5-.05-.16-.19-.26-.34-.27h0Zm-49,2.57c-.18,0-.35.13-.39.31-.05.21.09.42.31.47l1.88.4c.21.05.42-.09.47-.31.05-.21-.09-.42-.31-.47l-1.88-.4s-.05,0-.08,0h0Zm49.63,0s-.05,0-.08,0l-1.88.4c-.21.05-.35.26-.31.47.05.21.26.35.47.31l1.88-.4c.21-.05.35-.26.31-.47-.04-.19-.21-.32-.39-.31h0Zm-50.11,2.6c-.18.02-.34.16-.36.35-.02.22.13.41.35.44l4.55.48c.22.02.41-.13.44-.35s-.13-.41-.35-.44l-4.55-.48s-.05,0-.08,0h0Zm50.59.03s-.05,0-.08,0l-4.55.47c-.22.02-.38.22-.35.44.02.22.22.38.44.35l4.55-.47c.22-.02.38-.22.35-.44-.02-.19-.17-.34-.36-.35h0Zm-50.67,2.63c-.22,0-.4.18-.4.4s.18.4.4.4h1.92c.22,0,.4-.18.4-.4s-.18-.4-.4-.4h-1.92Zm48.81,0c-.22,0-.4.18-.4.4s.18.4.4.4h1.92c.22,0,.4-.18.4-.4s-.18-.4-.4-.4h-1.92Zm-44.11,2.16s-.05,0-.08,0l-4.55.47c-.22.02-.38.22-.35.44s.22.38.44.35l4.55-.47c.22-.02.38-.22.35-.44-.02-.19-.17-.34-.36-.35h0Zm41.33.03c-.18.02-.34.16-.36.35-.02.22.13.41.35.44l4.55.48c.22.02.41-.13.44-.35.02-.22-.13-.41-.35-.44l-4.55-.48s-.05,0-.08,0h0Zm-43.6,2.68s-.05,0-.08,0l-1.88.4c-.21.05-.35.26-.31.47.05.21.26.35.47.31l1.88-.4c.21-.05.35-.26.31-.47-.04-.19-.21-.32-.39-.31h0Zm45.87,0c-.18,0-.35.13-.39.31-.05.21.09.42.31.47l1.88.4c.21.05.42-.09.47-.31.05-.21-.09-.42-.31-.47l-1.88-.4s-.05,0-.08,0h0Zm-42.7,1.56c-.05,0-.1,0-.16.02l-4.35,1.41c-.21.07-.32.29-.25.5.07.21.29.32.5.25l4.35-1.41c.21-.07.32-.29.25-.5-.05-.16-.19-.26-.34-.27h0Zm39.52.01c-.15.01-.29.12-.34.27-.07.21.05.43.25.5l4.35,1.42c.21.07.43-.05.5-.25.07-.21-.05-.43-.25-.5l-4.35-1.42c-.05-.02-.11-.02-.16-.02h0Zm-41.19,3.08c-.05,0-.1.01-.15.03l-1.76.78c-.2.09-.29.32-.2.52.09.2.32.29.52.2l1.76-.78c.2-.09.29-.32.2-.52-.07-.15-.22-.24-.37-.24h0Zm42.84.02c-.15,0-.3.08-.37.24-.09.2,0,.43.2.52l1.76.78c.2.09.43,0,.52-.2s0-.43-.2-.52l-1.76-.78c-.05-.02-.1-.03-.15-.03h0Zm-39.42.86c-.08,0-.15.01-.23.05l-3.96,2.29c-.19.11-.26.35-.15.54s.35.26.54.15l3.96-2.29c.19-.11.26-.35.15-.54-.07-.12-.19-.19-.32-.2h0Zm36,0c-.13,0-.25.08-.32.2-.11.19-.05.43.15.54l3.96,2.29c.19.11.43.05.54-.15s.05-.43-.15-.54l-3.96-2.29c-.07-.04-.15-.06-.23-.05h0Zm-36.99,3.36c-.08,0-.15.03-.22.08l-1.56,1.13c-.18.13-.22.38-.09.55.13.18.38.22.55.09l1.56-1.13c.18-.13.22-.38.09-.55-.08-.11-.21-.17-.33-.16h0Zm37.97.01c-.13,0-.25.05-.33.16-.13.18-.09.43.09.55l1.56,1.13c.18.13.42.09.55-.09.13-.18.09-.42-.09-.55l-1.56-1.13c-.07-.05-.14-.07-.22-.08h0Zm-34.44.14c-.1,0-.2.03-.29.1l-3.4,3.06c-.16.15-.18.4-.03.56.15.16.4.18.56.03l3.4-3.06c.16-.15.18-.4.03-.56-.07-.08-.17-.13-.27-.13Zm30.91.01c-.1,0-.2.05-.27.13-.15.16-.13.41.03.56l3.4,3.06c.16.15.41.13.56-.03.15-.16.13-.41-.03-.56l-3.4-3.06c-.08-.07-.18-.11-.29-.1h0Zm-27.68,2.91c-.13,0-.25.05-.33.16l-2.69,3.7c-.13.18-.09.42.09.55.18.13.42.09.55-.09l2.69-3.7c.13-.18.09-.42-.09-.55-.07-.05-.14-.07-.22-.08Zm24.44.02c-.08,0-.15.03-.22.08-.18.13-.22.38-.09.55l2.69,3.7c.13.18.38.22.55.09.18-.13.22-.38.09-.55l-2.69-3.7c-.08-.11-.21-.17-.33-.16h0Zm-27.92.57c-.1,0-.2.05-.27.13l-1.29,1.43c-.15.16-.13.41.03.56.16.15.41.13.56-.03l1.29-1.43c.15-.16.13-.41-.03-.56-.08-.07-.18-.11-.29-.1h0Zm31.41,0c-.1,0-.2.03-.29.1-.16.15-.18.4-.03.56l1.29,1.43c.15.16.4.18.56.03.16-.15.18-.4.03-.56l-1.29-1.43c-.07-.08-.17-.13-.27-.13h0Zm-24.18,1.59c-.15,0-.3.08-.37.24l-1.86,4.18c-.09.2,0,.43.2.52.2.09.43,0,.52-.2l1.86-4.18c.09-.2,0-.43-.2-.52-.05-.02-.1-.03-.15-.03h0Zm16.92.01c-.05,0-.1.01-.15.03-.2.09-.29.32-.2.52l1.86,4.18c.09.2.32.29.52.2.2-.09.29-.32.2-.52l-1.86-4.18c-.07-.15-.22-.24-.37-.24h0Zm-20.2,1.28c-.13,0-.25.08-.32.2l-.96,1.67c-.11.19-.05.43.15.54.19.11.43.05.54-.15l.96-1.67c.11-.19.05-.43-.15-.54-.07-.04-.15-.06-.23-.05h0Zm23.5,0c-.08,0-.15.01-.23.05-.19.11-.26.35-.15.54l.96,1.67c.11.19.35.26.54.15.19-.11.26-.35.15-.54l-.96-1.67c-.07-.12-.19-.19-.32-.2h0Zm-16.07.06c-.18,0-.35.13-.39.31l-.95,4.48c-.05.21.09.42.31.47.21.05.42-.09.47-.31l.95-4.48c.05-.21-.09-.42-.31-.47-.03,0-.05,0-.08,0h0Zm8.63,0s-.05,0-.08,0c-.22.05-.35.26-.31.47l.95,4.48c.05.22.26.35.47.31.22-.05.35-.26.31-.47l-.95-4.48c-.04-.19-.21-.32-.39-.31h0Zm-4.31.45c-.22,0-.4.18-.4.4v4.58c0,.22.18.4.4.4s.4-.18.4-.4v-4.58c0-.22-.18-.4-.4-.4Zm-7.28,1.48c-.15.01-.29.12-.34.27l-.59,1.83c-.07.21.05.43.25.5.21.07.43-.05.5-.25l.59-1.83c.07-.21-.05-.43-.25-.5-.05-.02-.11-.02-.16-.02h0Zm14.56,0c-.05,0-.1,0-.16.02-.21.07-.32.29-.25.5l.59,1.83c.07.21.29.32.5.25.21-.07.32-.29.25-.5l-.59-1.83c-.05-.16-.19-.26-.34-.27h0Zm-9.77,1.02c-.18.02-.34.16-.36.35l-.2,1.91c-.02.22.13.41.35.44s.41-.13.44-.35l.2-1.91c.02-.22-.13-.41-.35-.44-.03,0-.05,0-.08,0Zm4.96,0s-.05,0-.08,0c-.22.02-.38.22-.35.44l.2,1.91c.02.22.22.38.44.35.22-.02.38-.22.35-.44l-.2-1.91c-.02-.19-.17-.34-.36-.35h0Z"/>
          <g id="path2150" class="cls-2">
            <polygon points="50.59 15.99 28.89 28.6 15.17 50.21 35.24 35.34 50.59 15.99"/>
          </g>
          <g id="g2847">
            <path id="path2096" class="cls-5" d="m35.11,35.12l-6.22-6.52,22.07-14.85-15.85,21.36Z"/>
            <path id="path2099" class="cls-6" d="m35.11,35.12l-6.22-6.52-15.85,21.36,22.07-14.85Z"/>
            <path id="path2112" class="cls-3" d="m13.04,49.96l22.07-14.85,15.85-21.36L13.04,49.96Z"/>
          </g>
        </g>
      </g>
    </g>
  </g>
</svg>