<svg xmlns="http://www.w3.org/2000/svg" viewBox="0 0 139.94 175"><g data-name="图层 2"><g data-name="图层 1"><path d="M4.88 0h91.51l43.55 44v126.12a4.88 4.88 0 0 1-4.88 4.88H4.88A4.89 4.89 0 0 1 0 170.12V4.88A4.89 4.89 0 0 1 4.88 0Z" fill="#f2733d"/><path d="M96.39 0v39.16a4.87 4.87 0 0 0 4.88 4.84h38.67Z" fill="#f3b2a6"/><path d="M100.8 80.88c1.52 1.55 2.32 3.79 2.32 7.11s-.8 5.55-2.32 7.11-4.37 2.9-8.44 3.53H32a6.83 6.83 0 0 0-6.83 6.84v30.66a6.84 6.84 0 1 0 13.67 0V112.3h54a7.89 7.89 0 0 0 1-.06c14.6-2.09 23-10.64 23-24.25s-8.36-22.16-23-24.25a6.33 6.33 0 0 0-1-.07H32a6.84 6.84 0 0 0 0 13.67h60.36c4.07.66 6.82 1.88 8.44 3.54Z" fill="#fff"/></g></g></svg>