<svg xmlns="http://www.w3.org/2000/svg" viewBox="0 0 139.94 175"><defs><style>.cls-3{fill:#fff}</style></defs><g id="图层_2" data-name="图层 2"><g id="图层_1-2" data-name="图层 1"><path d="M4.88 0h91.51l43.55 44v126.12a4.88 4.88 0 0 1-4.88 4.88H4.88A4.89 4.89 0 0 1 0 170.12V4.88A4.89 4.89 0 0 1 4.88 0Z" fill="#47b347"/><path d="M96.39 0v39.16a4.87 4.87 0 0 0 4.88 4.84h38.67Z" fill="#e0efdc"/><path class="cls-3" d="M102.15 63.34 28 137.71a6.83 6.83 0 1 0 9.68 9.65L111.83 73a6.83 6.83 0 1 0-9.68-9.65Z"/><path class="cls-3" d="m28 72.8 74.18 74.37a6.84 6.84 0 1 0 9.68-9.66L37.65 63.14A6.84 6.84 0 1 0 28 72.8Z"/></g></g></svg>