<?xml version="1.0" encoding="UTF-8"?>
<svg id="_图层_2" data-name="图层 2" xmlns="http://www.w3.org/2000/svg" xmlns:xlink="http://www.w3.org/1999/xlink" viewBox="0 0 64 64">
  <defs>
    <style>
      .cls-1, .cls-2, .cls-3, .cls-4, .cls-5, .cls-6, .cls-7, .cls-8, .cls-9, .cls-10, .cls-11, .cls-12, .cls-13, .cls-14, .cls-15, .cls-16, .cls-17, .cls-18 {
        fill: none;
      }

      .cls-19 {
        fill: url(#_未命名的渐变_8-2);
      }

      .cls-2 {
        clip-path: url(#clippath-8);
      }

      .cls-3 {
        clip-path: url(#clippath-7);
      }

      .cls-4 {
        clip-path: url(#clippath-6);
      }

      .cls-5 {
        clip-path: url(#clippath-9);
      }

      .cls-6 {
        clip-path: url(#clippath-5);
      }

      .cls-7 {
        clip-path: url(#clippath-3);
      }

      .cls-8 {
        clip-path: url(#clippath-4);
      }

      .cls-9 {
        clip-path: url(#clippath-2);
      }

      .cls-10 {
        clip-path: url(#clippath-1);
      }

      .cls-20 {
        fill: #f1f1f1;
      }

      .cls-21 {
        fill: #ffcd40;
      }

      .cls-22 {
        fill: #db4437;
      }

      .cls-23 {
        fill: #0f9d58;
      }

      .cls-24 {
        fill: #4285f4;
      }

      .cls-25 {
        fill: rgba(62, 39, 35, .2);
      }

      .cls-26 {
        fill: rgba(255, 255, 255, .2);
      }

      .cls-27 {
        fill: rgba(62, 39, 35, .15);
      }

      .cls-28 {
        fill: rgba(38, 50, 56, .15);
      }

      .cls-29 {
        fill: url(#_未命名的渐变_10);
      }

      .cls-11 {
        clip-path: url(#clippath-13);
      }

      .cls-12 {
        clip-path: url(#clippath-14);
      }

      .cls-13 {
        clip-path: url(#clippath-12);
      }

      .cls-14 {
        clip-path: url(#clippath-11);
      }

      .cls-15 {
        clip-path: url(#clippath-16);
      }

      .cls-16 {
        clip-path: url(#clippath-10);
      }

      .cls-17 {
        clip-path: url(#clippath-15);
      }

      .cls-30 {
        fill: rgba(255, 255, 255, .1);
      }

      .cls-31 {
        fill: url(#_未命名的渐变_9);
      }

      .cls-32 {
        fill: url(#_未命名的渐变_7);
      }

      .cls-33 {
        fill: url(#_未命名的渐变_8);
      }

      .cls-34 {
        fill: url(#_未命名的渐变_5);
      }

      .cls-35 {
        fill: url(#_未命名的渐变_4);
      }

      .cls-36 {
        fill: #1ebbee;
        opacity: 0;
      }

      .cls-37 {
        fill: #3e2723;
        isolation: isolate;
        opacity: .1;
      }

      .cls-18 {
        clip-path: url(#clippath);
      }
    </style>
    <clipPath id="clippath">
      <circle class="cls-1" cx="32" cy="32" r="30"/>
    </clipPath>
    <linearGradient id="_未命名的渐变_5" data-name="未命名的渐变 5" x1="1287.16" y1="-983.35" x2="1339.66" y2="-952.69" gradientTransform="translate(-429.53 -310.39) scale(.34 -.34)" gradientUnits="userSpaceOnUse">
      <stop offset="0" stop-color="#a52714" stop-opacity=".6"/>
      <stop offset=".66" stop-color="#a52714" stop-opacity="0"/>
    </linearGradient>
    <clipPath id="clippath-1">
      <circle class="cls-1" cx="32" cy="32" r="30"/>
    </clipPath>
    <clipPath id="clippath-2">
      <circle class="cls-1" cx="32" cy="32" r="30"/>
    </clipPath>
    <linearGradient id="_未命名的渐变_7" data-name="未命名的渐变 7" x1="1368.69" y1="-1072.83" x2="1310.36" y2="-1038.66" gradientTransform="translate(-429.53 -310.39) scale(.34 -.34)" gradientUnits="userSpaceOnUse">
      <stop offset="0" stop-color="#055524" stop-opacity=".4"/>
      <stop offset=".33" stop-color="#055524" stop-opacity="0"/>
    </linearGradient>
    <clipPath id="clippath-3">
      <circle class="cls-1" cx="32" cy="32" r="30"/>
    </clipPath>
    <clipPath id="clippath-4">
      <circle class="cls-1" cx="32" cy="32" r="30"/>
    </clipPath>
    <clipPath id="clippath-5">
      <polygon class="cls-1" points="2 62 30.56 62 43.81 48.75 43.81 38.82 20.19 38.82 2 7.62 2 62"/>
    </clipPath>
    <linearGradient id="_未命名的渐变_4" data-name="未命名的渐变 4" x1="1379.67" y1="-958.14" x2="1394.36" y2="-1022.46" gradientTransform="translate(-429.53 -310.39) scale(.34 -.34)" gradientUnits="userSpaceOnUse">
      <stop offset="0" stop-color="#ea6100" stop-opacity=".3"/>
      <stop offset=".66" stop-color="#ea6100" stop-opacity="0"/>
    </linearGradient>
    <clipPath id="clippath-6">
      <circle class="cls-1" cx="32" cy="32" r="30"/>
    </clipPath>
    <clipPath id="clippath-7">
      <circle class="cls-1" cx="32" cy="32" r="30"/>
    </clipPath>
    <clipPath id="clippath-8">
      <polygon class="cls-1" points="32 18.36 43.81 38.82 30.56 62 62 62 62 18.36 32 18.36"/>
    </clipPath>
    <clipPath id="clippath-9">
      <circle class="cls-1" cx="32" cy="32" r="30"/>
    </clipPath>
    <radialGradient id="_未命名的渐变_8" data-name="未命名的渐变 8" cx="1926" cy="-964.28" fx="1926" fy="-964.28" r="84.08" gradientTransform="translate(-625.89 -310.39) scale(.34 -.34)" gradientUnits="userSpaceOnUse">
      <stop offset="0" stop-color="#3e2723" stop-opacity=".2"/>
      <stop offset="1" stop-color="#3e2723" stop-opacity="0"/>
    </radialGradient>
    <clipPath id="clippath-10">
      <circle class="cls-1" cx="32" cy="32" r="30"/>
    </clipPath>
    <clipPath id="clippath-11">
      <polygon class="cls-1" points="6.76 2 6.76 15.75 20.19 38.82 32 18.36 62 18.36 62 2 6.76 2"/>
    </clipPath>
    <clipPath id="clippath-12">
      <circle class="cls-1" cx="32" cy="32" r="30"/>
    </clipPath>
    <radialGradient id="_未命名的渐变_8-2" data-name="未命名的渐变 8" cx="1855.7" cy="-956.85" fx="1855.7" fy="-956.85" r="78.04" xlink:href="#_未命名的渐变_8"/>
    <clipPath id="clippath-13">
      <circle class="cls-1" cx="32" cy="32" r="30"/>
    </clipPath>
    <radialGradient id="_未命名的渐变_9" data-name="未命名的渐变 9" cx="1929.66" cy="-1004.47" fx="1929.66" fy="-1004.47" r="87.87" gradientTransform="translate(-625.89 -310.39) scale(.34 -.34)" gradientUnits="userSpaceOnUse">
      <stop offset="0" stop-color="#263238" stop-opacity=".2"/>
      <stop offset="1" stop-color="#263238" stop-opacity="0"/>
    </radialGradient>
    <clipPath id="clippath-14">
      <circle class="cls-1" cx="32" cy="32" r="30"/>
    </clipPath>
    <clipPath id="clippath-15">
      <circle class="cls-1" cx="32" cy="32" r="30"/>
    </clipPath>
    <clipPath id="clippath-16">
      <circle class="cls-1" cx="32" cy="32" r="30"/>
    </clipPath>
    <radialGradient id="_未命名的渐变_10" data-name="未命名的渐变 10" cx="1292.11" cy="-940.35" fx="1292.11" fy="-940.35" r="176.75" gradientTransform="translate(-429.53 -310.39) scale(.34 -.34)" gradientUnits="userSpaceOnUse">
      <stop offset="0" stop-color="#fff" stop-opacity=".1"/>
      <stop offset="1" stop-color="#fff" stop-opacity="0"/>
    </radialGradient>
  </defs>
  <g id="svg137">
    <g>
      <rect class="cls-36" width="64" height="64"/>
      <g id="g202">
        <g class="cls-18">
          <g id="g17">
            <path id="path8" class="cls-22" d="m6.76,2v36.82h13.43l11.81-20.45h30V2H6.76Z"/>
            <path id="path15" class="cls-34" d="m6.76,2v36.82h13.43l11.81-20.45h30V2H6.76Z"/>
          </g>
        </g>
        <g class="cls-10">
          <path id="path19" class="cls-27" d="m20.51,38.7L6.94,15.41l-.2.34,13.48,23.11.3-.17Z"/>
        </g>
        <g class="cls-9">
          <g id="g30">
            <path id="path21" class="cls-23" d="m2,62h28.56l13.25-13.25v-9.93h-23.62L2,7.62v54.38Z"/>
            <path id="path28" class="cls-32" d="m2,62h28.56l13.25-13.25v-9.93h-23.62L2,7.62v54.38Z"/>
          </g>
        </g>
        <g class="cls-7">
          <path id="path32" class="cls-28" d="m43.54,39.27l-.28-.16-13.09,22.89h.39l12.99-22.72h-.01Z"/>
        </g>
        <g class="cls-8">
          <g id="g51">
            <g class="cls-6">
              <g id="g49">
                <path id="path40" class="cls-21" d="m32,18.36l11.81,20.45-13.25,23.18h31.44V18.36h-30Z"/>
                <path id="path47" class="cls-35" d="m32,18.36l11.81,20.45-13.25,23.18h31.44V18.36h-30Z"/>
              </g>
            </g>
          </g>
        </g>
        <g class="cls-4">
          <g id="g57">
            <path id="path53" class="cls-21" d="m32,18.36l11.81,20.45-13.25,23.18h31.44V18.36h-30Z"/>
            <path id="path55" class="cls-35" d="m32,18.36l11.81,20.45-13.25,23.18h31.44V18.36h-30Z"/>
          </g>
        </g>
        <g class="cls-3">
          <g id="g71">
            <g class="cls-2">
              <g id="g69">
                <path id="path65" class="cls-22" d="m6.76,2v36.82h13.43l11.81-20.45h30V2H6.76Z"/>
                <path id="path67" class="cls-34" d="m6.76,2v36.82h13.43l11.81-20.45h30V2H6.76Z"/>
              </g>
            </g>
          </g>
        </g>
        <g class="cls-5">
          <path id="path78" class="cls-33" d="m32,18.36v7.14l26.73-7.14h-26.73Z"/>
        </g>
        <g class="cls-16">
          <g id="g92">
            <g class="cls-14">
              <g id="g90">
                <path id="path86" class="cls-23" d="m2,62h28.56l13.25-13.25v-9.93h-23.62L2,7.62v54.38Z"/>
                <path id="path88" class="cls-32" d="m2,62h28.56l13.25-13.25v-9.93h-23.62L2,7.62v54.38Z"/>
              </g>
            </g>
          </g>
        </g>
        <g class="cls-13">
          <path id="path99" class="cls-19" d="m6.76,15.79l19.52,19.51-6.09,3.51L6.76,15.79Z"/>
        </g>
        <g class="cls-11">
          <path id="path106" class="cls-31" d="m30.58,61.96l7.15-26.66,6.09,3.51-13.23,23.14Z"/>
        </g>
        <g class="cls-12">
          <g id="g112">
            <circle id="circle108" class="cls-20" cx="32" cy="32" r="13.64"/>
            <circle id="circle110" class="cls-24" cx="32" cy="32" r="10.91"/>
          </g>
        </g>
        <g class="cls-17">
          <g id="g122">
            <path id="path114" class="cls-25" d="m32,18.02c-7.53,0-13.64,6.11-13.64,13.64v.34c0-7.53,6.11-13.64,13.64-13.64h30v-.34h-30Z"/>
            <path id="path116" class="cls-30" d="m43.8,38.82c-2.36,4.07-6.75,6.82-11.8,6.82s-9.44-2.75-11.8-6.82h-.01L2,7.62v.34l18.19,31.2h.01c2.36,4.07,6.75,6.82,11.8,6.82s9.44-2.74,11.8-6.82h.02v-.34h-.02Z"/>
            <path id="path118" class="cls-37" d="m32.34,18.36c-.06,0-.11,0-.17.01,7.45.09,13.47,6.15,13.47,13.63s-6.01,13.53-13.47,13.63c.06,0,.11.01.17.01,7.53,0,13.64-6.11,13.64-13.64s-6.11-13.64-13.64-13.64Z"/>
            <path id="path120" class="cls-26" d="m43.93,39.27c1.16-2,1.83-4.32,1.83-6.8,0-1.44-.23-2.82-.64-4.12.32,1.17.51,2.39.51,3.66,0,2.48-.67,4.8-1.83,6.8h0s-13.25,23.2-13.25,23.2h.4l12.99-22.72h0Z"/>
          </g>
        </g>
        <g class="cls-15">
          <g id="g128">
            <path id="path124" class="cls-26" d="m32,2.34c16.51,0,29.9,13.34,30,29.83,0-.06,0-.11,0-.17,0-16.57-13.43-30-30-30S2,15.43,2,32c0,.06,0,.11,0,.17C2.1,15.68,15.49,2.34,32,2.34Z"/>
            <path id="path126" class="cls-27" d="m32,61.66c16.51,0,29.9-13.34,30-29.83,0,.06,0,.11,0,.17,0,16.57-13.43,30-30,30S2,48.57,2,32c0-.06,0-.11,0-.17.09,16.49,13.49,29.83,30,29.83Z"/>
          </g>
        </g>
        <circle id="circle135" class="cls-29" cx="32" cy="32" r="30"/>
      </g>
    </g>
  </g>
</svg>